<svg width="46" height="45" viewBox="0 0 46 45" fill="none" xmlns="http://www.w3.org/2000/svg">
<path d="M1.01971 8.79296C1.02608 4.37469 4.61297 0.798137 9.03124 0.804513L37.0312 0.844919C41.4495 0.851294 45.026 4.43818 45.0197 8.85645L44.9793 36.8564C44.9729 41.2747 41.386 44.8512 36.9677 44.8449L8.96775 44.8045C4.54947 44.7981 0.972924 41.2112 0.9793 36.7929L1.01971 8.79296Z" fill="#F9FAFA"/>
<path d="M25.4884 18.6719C25.4884 18.6719 25.9045 19.0891 26.32 19.9231C26.32 19.9231 27.6465 17.8417 28.8236 17.4267" stroke="#535862" stroke-width="1.5" stroke-linecap="round" stroke-linejoin="round"/>
<path d="M21.3401 14.5056C19.2581 14.4145 17.6493 14.652 17.6493 14.652C16.6334 14.7232 14.6861 15.2898 14.6813 18.6154C14.6766 21.9127 14.6492 25.9776 14.6684 27.5982C14.6669 28.5882 15.2766 30.8985 17.3982 31.0254C19.9771 31.1796 24.6225 31.2183 26.7542 31.0389C27.3248 31.0075 29.2251 30.5623 29.4685 28.4959C29.7206 26.3552 29.6732 24.8671 29.6737 24.513" stroke="#535862" stroke-width="1.5" stroke-linecap="round" stroke-linejoin="round"/>
<path d="M31.3392 18.6826C31.3359 20.9838 29.466 22.8466 27.1625 22.8433C24.8591 22.84 22.9946 20.9717 22.9979 18.6706C23.0012 16.3694 24.8712 14.5066 27.1746 14.5099C29.478 14.5132 31.3425 16.3814 31.3392 18.6826Z" stroke="#535862" stroke-width="1.5" stroke-linecap="round"/>
<path d="M18.8145 23.6641L22.1478 23.6689" stroke="#535862" stroke-width="1.5" stroke-linecap="round"/>
<path d="M18.8105 26.9961L25.4772 27.0057" stroke="#535862" stroke-width="1.5" stroke-linecap="round"/>
</svg>
