<svg width="11" height="15" viewBox="0 0 11 15" fill="none" xmlns="http://www.w3.org/2000/svg">
<path d="M5.33333 11.1667C4.97971 11.1667 4.64057 11.0262 4.39052 10.7761C4.14048 10.5261 4 10.187 4 9.83333C4 9.09333 4.59333 8.5 5.33333 8.5C5.68696 8.5 6.02609 8.64048 6.27614 8.89052C6.52619 9.14057 6.66667 9.47971 6.66667 9.83333C6.66667 10.187 6.52619 10.5261 6.27614 10.7761C6.02609 11.0262 5.68696 11.1667 5.33333 11.1667ZM9.33333 13.1667V6.5H1.33333V13.1667H9.33333ZM9.33333 5.16667C9.68696 5.16667 10.0261 5.30714 10.2761 5.55719C10.5262 5.80724 10.6667 6.14638 10.6667 6.5V13.1667C10.6667 13.5203 10.5262 13.8594 10.2761 14.1095C10.0261 14.3595 9.68696 14.5 9.33333 14.5H1.33333C0.979711 14.5 0.640573 14.3595 0.390524 14.1095C0.140476 13.8594 0 13.5203 0 13.1667V6.5C0 5.76 0.593333 5.16667 1.33333 5.16667H2V3.83333C2 2.94928 2.35119 2.10143 2.97631 1.47631C3.60143 0.851189 4.44928 0.5 5.33333 0.5C5.77107 0.5 6.20453 0.586219 6.60894 0.753735C7.01336 0.921251 7.38083 1.16678 7.69036 1.47631C7.99988 1.78584 8.24542 2.1533 8.41293 2.55772C8.58045 2.96214 8.66667 3.39559 8.66667 3.83333V5.16667H9.33333ZM5.33333 1.83333C4.8029 1.83333 4.29419 2.04405 3.91912 2.41912C3.54405 2.79419 3.33333 3.3029 3.33333 3.83333V5.16667H7.33333V3.83333C7.33333 3.3029 7.12262 2.79419 6.74755 2.41912C6.37247 2.04405 5.86377 1.83333 5.33333 1.83333Z" fill="#374151" fill-opacity="0.22"/>
</svg>
