<svg width="60" height="61" viewBox="0 0 60 61" fill="none" xmlns="http://www.w3.org/2000/svg">
<rect y="0.46582" width="60" height="60" rx="30" fill="#EFF6FF"/>
<path d="M16.666 22.4658L25.8834 27.6884C29.2815 29.6138 30.7172 29.6138 34.1153 27.6884L43.3327 22.4658" stroke="#1677FF" stroke-width="1.5" stroke-linejoin="round"/>
<path d="M16.687 32.4332C16.7742 36.5207 16.8178 38.5643 18.326 40.0783C19.8341 41.5922 21.9331 41.6448 26.1311 41.7503C28.7184 41.8154 31.2803 41.8154 33.8676 41.7503C38.0656 41.6448 40.1646 41.5922 41.6728 40.0783C43.181 38.5643 43.2245 36.5207 43.3116 32.4332C43.3397 31.119 43.3397 29.8126 43.3116 28.4983C43.2245 24.4109 43.181 22.3672 41.6728 20.8533C40.1646 19.3394 38.0656 19.2867 33.8676 19.1812C31.2803 19.1162 28.7184 19.1162 26.1311 19.1812C21.9331 19.2867 19.8341 19.3394 18.3259 20.8533C16.8178 22.3672 16.7742 24.4109 16.687 28.4983C16.659 29.8126 16.659 31.119 16.687 32.4332Z" stroke="#1677FF" stroke-width="1.5" stroke-linejoin="round"/>
</svg>
