<svg width="20" height="21" viewBox="0 0 20 21" fill="none" xmlns="http://www.w3.org/2000/svg">
<path d="M12.5 7.96484C12.5 6.58414 11.3807 5.46484 10 5.46484C8.61925 5.46484 7.5 6.58414 7.5 7.96484C7.5 9.34559 8.61925 10.4648 10 10.4648C11.3807 10.4648 12.5 9.34559 12.5 7.96484Z" stroke="currentColor" stroke-width="1.5" stroke-linecap="round" stroke-linejoin="round"/>
<path d="M18.333 16.2988C18.333 14.9181 17.2138 13.7988 15.833 13.7988C14.4523 13.7988 13.333 14.9181 13.333 16.2988C13.333 17.6796 14.4523 18.7988 15.833 18.7988C17.2138 18.7988 18.333 17.6796 18.333 16.2988Z" stroke="currentColor" stroke-width="1.5" stroke-linecap="round" stroke-linejoin="round"/>
<path d="M18.2108 11.8996C18.2916 11.4339 18.3337 10.955 18.3337 10.4661C18.3337 5.86377 14.6027 2.13281 10.0003 2.13281C5.39795 2.13281 1.66699 5.86377 1.66699 10.4661C1.66699 15.0685 5.39795 18.7995 10.0003 18.7995C10.4892 18.7995 10.9681 18.7574 11.4338 18.6766" stroke="currentColor" stroke-width="1.5" stroke-linecap="round" stroke-linejoin="round"/>
<path d="M5.83301 14.6315C5.83301 12.3303 7.69849 10.4648 9.99967 10.4648C11.3116 10.4648 12.4818 11.0712 13.2456 12.0188" stroke="currentColor" stroke-width="1.5" stroke-linecap="round" stroke-linejoin="round"/>
</svg>
